<svg xmlns="http://www.w3.org/2000/svg" width="1547.0" height="384" viewBox="0 0 1547.0 384"><defs>
  <linearGradient id="mdy-top" x1="0" y1="222" x2="338" y2="118" gradientUnits="userSpaceOnUse">
    <stop offset="0" stop-color="#6B61F2"/><stop offset="0.45" stop-color="#A855F7"/><stop offset="1" stop-color="#DC66A8"/>
  </linearGradient>
  <linearGradient id="mdy-left" x1="0" y1="150" x2="60" y2="380" gradientUnits="userSpaceOnUse">
    <stop offset="0" stop-color="#7067FF"/><stop offset="1" stop-color="#A855F7"/>
  </linearGradient>
  <linearGradient id="mdy-right" x1="338" y1="170" x2="250" y2="380" gradientUnits="userSpaceOnUse">
    <stop offset="0" stop-color="#FF7A85"/><stop offset="1" stop-color="#FF556F"/>
  </linearGradient></defs><g transform="translate(0,0) scale(1.0)"><path d="M 0.00 148.00 Q 0.00 118.00 24.87 101.22 L 147.45 18.54 Q 169.00 4.00 190.55 18.54 L 313.13 101.22 Q 338.00 118.00 338.00 148.00 L 338.00 198.00 Q 338.00 222.00 317.67 209.25 L 194.41 131.94 Q 169.00 116.00 143.59 131.94 L 20.33 209.25 Q 0.00 222.00 0.00 198.00 Z" fill="url(#mdy-top)"/><path d="M 0.00 214.00 Q 0.00 160.00 45.61 188.91 L 104.84 226.45 Q 142.00 250.00 142.00 294.00 L 142.00 314.00 Q 142.00 368.00 96.39 339.09 L 37.16 301.55 Q 0.00 278.00 0.00 234.00 Z" fill="url(#mdy-left)"/><path d="M 338.00 214.00 Q 338.00 160.00 292.39 188.91 L 233.16 226.45 Q 196.00 250.00 196.00 294.00 L 196.00 314.00 Q 196.00 368.00 241.61 339.09 L 300.84 301.55 Q 338.00 278.00 338.00 234.00 Z" fill="url(#mdy-right)"/></g><g fill="#F8FAFC"><path d="M205 0V262C205 353 204 422 197 466L382 0H500L686 467C679 415 679 372 679 225V0H803V731H677L441 149L205 731H81V0Z" transform="translate(418.000,259.000) scale(0.205198,-0.205198)"/><path d="M748 366C748 589 602 744 393 744C184 744 39 588 39 366C39 143 183 -12 392 -12C602 -12 748 144 748 366ZM613 366C613 212 527 111 393 111C259 111 173 210 173 366C173 522 259 621 393 621C527 621 613 522 613 366Z" transform="translate(644.539,259.000) scale(0.205198,-0.205198)"/><path d="M344 0C556 0 702 149 702 364C702 582 553 731 337 731H81V0ZM325 613C476 613 567 519 567 364C567 212 478 118 332 118H209V613Z" transform="translate(850.969,259.000) scale(0.205198,-0.205198)"/><path d="M257 288V0H385V288L631 731H492L349 465C336 441 332 429 323 411C315 429 308 445 297 465L153 731H10Z" transform="translate(1047.959,259.000) scale(0.205198,-0.205198)"/><path d="M209 0V273H366L490 0H630L491 300C577 335 623 405 623 503C623 647 526 731 360 731H81V0ZM209 617H360C441 617 489 576 489 503C489 429 441 386 360 386H209Z" transform="translate(1224.635,259.000) scale(0.205198,-0.205198)"/><path d="M144 0 203 169H476L535 0H670L406 731H275L11 0ZM324 513C331 533 337 555 340 569C342 554 349 532 355 513L439 277H241Z" transform="translate(1407.261,259.000) scale(0.205198,-0.205198)"/></g></svg>